# xmcd
# 
# Track frame offsets:
#     150
#     20116
#     33365
#     68813
#     87912
#     106630
#     135787
#     166602
#     186657
#     208683
#     228644
#     246079
#     284472
# 
# Disc length: 4440
# 
# Revision: 5
# Processed by: cddbd v1.5.2PL0 Copyright (c) Steve Scherf et al.
# Submitted via: BonkEnc v1.0.8
# 
DISCID=ae11560d
DTITLE=Gary Moore - Parisienne Walkways: The Blues Collection
DYEAR=2003
DGENRE=Blues
TTITLE0=Oh Pretty Woman [feat. Albert King] [from 'Still Got the Blues', March 1990]
TTITLE1=Walking By Myself [from 'Still Got the Blues', March 1990]
TTITLE2=Need Your Love So Bad [from 'Blues for Greeny', May 1995]
TTITLE3=Merry-Go-Round [from 'Blues for Greeny', May 1995]
TTITLE4=Showbiz Blues [from 'Blues for Greeny', May 1995]
TTITLE5=Love That Burns [from 'Blues for Greeny', May 1995]
TTITLE6=Parisienne Walkways [Live, tour recording sometime from May to October 1992, from 'Blues Alive', 1993]
TTITLE7=That Kind of Woman [from CD release of 'Still Got the Blues', March 1990]
TTITLE8=The Sky Is Crying [bonus track from remastered CD release of 'Still Got the Blues', 2002]
TTITLE9=Cold Day in Hell [from 'After Hours', March 1992]
TTITLE10=Only Fool in Town [from 'After Hours', March 1992]
TTITLE11=King of the Blues [Live, tour recording sometime from May to October 1992, from 'Blues Alive', 1993]
TTITLE12=[ data track ]
EXTD=
EXTT0=
EXTT1=
EXTT2=
EXTT3=
EXTT4=
EXTT5=
EXTT6=
EXTT7=
EXTT8=
EXTT9=
EXTT10=
EXTT11=
EXTT12=
PLAYORDER=
